<svg xmlns="http://www.w3.org/2000/svg" version="1.1" xmlns:xlink="http://www.w3.org/1999/xlink" xmlns:svgjs="http://svgjs.dev/svgjs" width="1500" height="1500" viewBox="0 0 1500 1500"><rect width="1500" height="1500" fill="#ffffff"></rect><g transform="matrix(0.6666666666666666,0,0,0.6666666666666666,249.39393939393938,438.5856950067477)"><svg viewBox="0 0 396 247" data-background-color="#14293a" preserveAspectRatio="xMidYMid meet" height="935" width="1500" xmlns="http://www.w3.org/2000/svg" xmlns:xlink="http://www.w3.org/1999/xlink"><g id="tight-bounds" transform="matrix(1,0,0,1,0.2400000000000091,-0.09999999999999432)"><svg viewBox="0 0 395.52 247.2" height="247.2" width="395.52"><g><svg></svg></g><g><svg viewBox="0 0 395.52 247.2" height="247.2" width="395.52"><g transform="matrix(1,0,0,1,96.83760967741935,47.215199999999996)"><svg viewBox="0 0 201.84478064516128 152.7696" height="152.7696" width="201.84478064516128"><g><svg viewBox="0 0 201.84478064516128 152.7696" height="152.7696" width="201.84478064516128"><g><svg viewBox="0 0 201.84478064516128 152.7696" height="152.7696" width="201.84478064516128"><g><svg viewBox="0 0 201.84478064516128 152.7696" height="152.7696" width="201.84478064516128"><g id="textblocktransform"><svg viewBox="0 0 201.84478064516128 152.7696" height="152.7696" width="201.84478064516128" id="textblock"><g><svg viewBox="0 0 201.84478064516128 152.7696" height="152.7696" width="201.84478064516128"><g transform="matrix(1,0,0,1,0,0)"><svg width="201.84478064516128" viewBox="4.65 -32.1 49.15 37.2" height="152.7696" data-palette-color="#e9e4de"><path d="M8.75-32.05L8.5-10 8.7 0 4.65 0 4.9-9.65 4.65-32.05 8.75-32.05ZM24.25-32.05L24.05-10.6 24.15-5.9Q24.15-2.1 22.25 0.38 20.35 2.85 15.65 5.1L15.65 5.1 14.1 2.85 14.1 2.35Q17.55 0.5 19-1.3 20.45-3.1 20.45-5.85L20.45-5.85 20.45-10.2 20.25-28.8 14.1-28.75 13.7-29.1 13.95-32.05 24.25-32.05ZM47-16.7Q53.8-15.35 53.8-8.95L53.8-8.95Q53.8-4.4 50.5-2.1 47.2 0.2 40.64 0.2L40.64 0.2Q36.24 0.2 33.59 0L33.59 0 33.55 0 33.8-9.65 33.55-32.05 42.45-32.1Q46.95-32.1 49.37-30.1 51.8-28.1 51.8-24.3L51.8-24.3Q51.8-21.6 50.55-19.65 49.3-17.7 47-16.7L47-16.7ZM47.7-23.85Q47.7-26.45 46.27-27.63 44.84-28.8 41.64-28.8L41.64-28.8 37.59-28.8 37.49-18.05 43-17.9Q47.7-19 47.7-23.85L47.7-23.85ZM41.25-3.15Q45.34-3.15 47.55-4.7 49.75-6.25 49.75-9.15L49.75-9.15Q49.75-14.05 43.59-14.75L43.59-14.75 37.45-14.7 37.39-10 37.55-3.3Q39.5-3.15 41.25-3.15L41.25-3.15Z" opacity="1" transform="matrix(1,0,0,1,0,0)" fill="#000000" class="wordmark-text-0" data-fill-palette-color="primary" id="text-0"></path></svg></g></svg></g></svg></g></svg></g></svg></g></svg></g></svg></g><g><path d="M224.522 0c68.262 0 123.6 55.338 123.6 123.6 0 68.262-55.338 123.6-123.6 123.6-30.402 0-58.24-10.976-79.768-29.183l11.147 0c19.26 14.022 42.974 22.294 68.621 22.295 25.647 0 49.361-8.272 68.622-22.295h1.454v-1.076c28.321-21.295 46.636-55.179 46.636-93.341 0-38.162-18.316-72.046-46.636-93.341v-1.076l-1.454 0c-19.26-14.022-42.974-22.294-68.622-22.295-25.647 0-49.361 8.272-68.621 22.295l-11.147 0c21.528-18.206 49.366-29.183 79.768-29.183z" fill="#000000" stroke="transparent" data-fill-palette-color="tertiary"></path></g></svg></g><defs></defs></svg><rect width="395.52" height="247.2" fill="none" stroke="none" visibility="hidden"></rect></g></svg></g></svg>